<?xml version="1.0" encoding="UTF-8" standalone="no"?>
<svg
   xmlns:dc="http://purl.org/dc/elements/1.1/"
   xmlns:cc="http://creativecommons.org/ns#"
   xmlns:rdf="http://www.w3.org/1999/02/22-rdf-syntax-ns#"
   xmlns:svg="http://www.w3.org/2000/svg"
   xmlns="http://www.w3.org/2000/svg"
   xmlns:sodipodi="http://sodipodi.sourceforge.net/DTD/sodipodi-0.dtd"
   xmlns:inkscape="http://www.inkscape.org/namespaces/inkscape"
   width="16px"
   height="16px"
   version="1.1"
   id="svg12"
   sodipodi:docname="symbol.svg"
   inkscape:version="0.92+devel unknown">
  <defs
     id="defs16" />
  <sodipodi:namedview
     pagecolor="#ffffff"
     bordercolor="#666666"
     inkscape:document-rotation="0"
     borderopacity="1"
     objecttolerance="10"
     gridtolerance="10"
     guidetolerance="10"
     inkscape:pageopacity="0"
     inkscape:pageshadow="2"
     inkscape:window-width="1366"
     inkscape:window-height="704"
     id="namedview14"
     showgrid="false"
     inkscape:zoom="22.627417"
     inkscape:cx="13.883235"
     inkscape:cy="8.0804705"
     inkscape:window-x="0"
     inkscape:window-y="0"
     inkscape:window-maximized="1"
     inkscape:current-layer="g94" />
  <metadata
     id="metadata2">
    <rdf:RDF>
      <cc:Work
         rdf:about="">
        <dc:format>image/svg+xml</dc:format>
        <dc:type
           rdf:resource="http://purl.org/dc/dcmitype/StillImage" />
        <dc:title />
      </cc:Work>
    </rdf:RDF>
  </metadata>
  <g
     id="g94">
    <path
       style="fill-opacity:1;"
       d="m 0.59531836,15.576866 c 0,-0.119707 -0.0032,-0.123382 -0.117188,-0.132812 l -0.117187,-0.0097 -0.0079,-5.5390625 -0.0079,-5.5390626 h 0.125087 0.125086 v -0.125 -0.125 h 0.60937494 0.609375 v -1.078125 -1.078125 h 1.078125 1.078125 v -0.375 -0.375 H 2.8921933 1.8140683 V 0.87185488 0.54373 h 1.421875 1.421875 V 0.88747988 1.2312299 h 0.359375 0.359375 v 1.4375 1.4375 h 0.390625 0.390625 V 2.3249799 0.54373 h 2.859375 2.8593747 v 1.7812499 1.78125 h 0.375 0.375 V 2.3249799 0.54373 h 0.703125 0.703125 v 1.7812499 1.78125 h 0.609375 0.609375 v 0.125 0.125 h 0.125086 0.125086 l -0.0079,5.5390626 -0.0079,5.5390625 -0.09912,0.0096 c -0.08871,0.0086 -0.101305,0.02255 -0.119934,0.132813 l -0.02081,0.123202 H 7.9206983 0.59532036 Z M 15.032818,15.35623 v -0.125 h 0.14561 0.145611 l -0.02041,-1.445313 c -0.01123,-0.794921 -0.0205,-3.185546 -0.02061,-5.3124996 l -1.98e-4,-3.8671875 h -0.125 -0.125 v -0.125 -0.125 H 7.9234463 0.81407136 v 0.125 c 0,0.1249629 -3.8e-5,0.125 -0.124777,0.125 h -0.124778 l -0.008,4.2265625 c -0.0044,2.3246096 -0.0043,4.7152346 1.82e-4,5.3124996 l 0.0082,1.085938 h 0.124595 c 0.124527,0 0.124595,6.8e-5 0.124595,0.125 v 0.125 H 7.9234633 15.032838 Z M 0.47813036,13.054284 c -0.02148,-0.0087 -0.05664,-0.0087 -0.07813,0 -0.02148,0.0087 -0.0039,0.01576 0.03906,0.01576 0.04297,0 0.06055,-0.0071 0.03906,-0.01576 z M 8.3140683,2.6521431 V 1.1980563 l -0.382813,0.00877 -0.382812,0.00877 -0.0081,1.4453125 -0.0081,1.4453125 h 0.390937 0.390937 z m 2.1562497,9.618e-4 v -1.453125 h -0.375 -0.3749997 v 1.453125 1.453125 h 0.3749997 0.375 z m -6.4999997,0.375 v -0.390625 h -0.375 -0.375 v 0.3697917 c 0,0.2033854 0.0094,0.3791667 0.02083,0.390625 0.01146,0.011458 0.180208,0.020833 0.375,0.020833 h 0.354167 z"
       id="path129"
       inkscape:connector-curvature="0" />
    <path
       style="fill-opacity:1;"
       d="m 1.3765683,7.3249799 v -0.125 H 1.2359433 1.0953184 v -0.765625 -0.765625 h 0.1406249 0.140625 v -0.125 -0.125 h 6.5625 6.5624997 v 0.125 0.125 h 0.125 0.125 v 0.765625 0.765625 h -0.125 -0.125 v 0.125 0.125 h -3.34375 -3.3437497 v -0.125 -0.125 h -0.140625 -0.140625 v 0.125 0.125 h -3.078125 -3.078125 z"
       id="path131"
       inkscape:connector-curvature="0" />
    <path
       style="fill-opacity:1;"
       d="m 1.3705523,9.6609172 c -0.0096,-0.132166 -0.01025,-0.132859 -0.142422,-0.142421 l -0.1328119,-0.0096 V 8.7624799 8.0160736 l 0.1328119,-0.00961 c 0.132167,-0.00956 0.13286,-0.010255 0.142422,-0.1424218 l 0.0096,-0.1328125 h 6.560704 6.5607027 v 0.140625 0.140625 h 0.125 0.125 v 0.75 0.7499999 h -0.125 -0.125 v 0.140625 0.140625 h -3.34375 -3.3437497 v -0.140625 -0.140625 h -0.140625 -0.140625 v 0.140625 0.140625 h -3.076319 -3.076329 z"
       id="path133"
       inkscape:connector-curvature="0" />
    <path
       style="fill-opacity:1;"
       d="m 1.3765683,11.98123 v -0.125 H 1.2359433 1.0953184 V 11.090605 10.32498 h 0.1406249 0.140625 v -0.125 -0.125 h 6.5625 6.5624997 v 0.125 0.125 h 0.125 0.125 v 0.765625 0.765625 h -0.125 -0.125 v 0.125 0.125 h -3.34375 -3.3437497 v -0.125 -0.125 h -0.140625 -0.140625 v 0.125 0.125 h -3.078125 -3.078125 z"
       id="path139"
       inkscape:connector-curvature="0" />
    <path
       style="fill-opacity:1;"
       d="m 1.3765683,14.29373 v -0.125 H 1.2359433 1.0953184 V 13.403105 12.63748 h 0.1406249 0.140625 v -0.125 -0.125 h 6.5625 6.5624997 v 0.125 0.125 h 0.125 0.125 v 0.765625 0.765625 h -0.125 -0.125 v 0.125 0.125 h -3.34375 -3.3437497 v -0.125 -0.125 h -0.140625 -0.140625 v 0.125 0.125 h -3.078125 -3.078125 z"
       id="path141"
       inkscape:connector-curvature="0" />
  </g>
</svg>
